<svg xmlns="http://www.w3.org/2000/svg" version="1.1" xmlns:xlink="http://www.w3.org/1999/xlink" xmlns:svgjs="http://svgjs.com/svgjs" width="193.5pt" height="193.5pt"><svg xmlns="http://www.w3.org/2000/svg" xmlns:xlink="http://www.w3.org/1999/xlink" style="isolation:isolate" viewBox="1066.5 147.5 193.5 193.5" width="193.5pt" height="193.5pt"><path d=" M 1260 212 L 1195.5 212 L 1195.5 147.5 L 1260 212 Z " fill-rule="evenodd" fill="rgb(229,0,20)"></path><path d=" M 1066.5 276.5 L 1131 276.5 L 1131 341 L 1066.5 276.5 Z " fill-rule="evenodd" fill="rgb(229,0,20)"></path><path d=" M 1195.5 276.5 L 1195.5 276.5 L 1066.5 276.5 L 1066.5 147.5 L 1195.5 147.5 L 1195.5 212 L 1195.5 276.5 Z  M 1131 212 L 1195.5 212 L 1195.5 276.5 L 1131 276.5 L 1131 212 Z " fill-rule="evenodd" fill="rgb(229,0,20)"></path><path d=" M 1131 276.5 L 1131 341 L 1260 341 L 1260 212 L 1195.033 212 L 1131 212 L 1131 212 L 1195.033 212 L 1195.033 276.5 L 1131 276.5 Z " fill-rule="evenodd" fill="rgb(229,0,20)"></path><rect x="1102.25" y="305.25" width="64.5" height="7" transform="matrix(0,-1,1,0,825.75,1443.25)" fill="rgb(229,0,20)"></rect><rect x="1159.75" y="176.25" width="64.5" height="7" transform="matrix(0,1,-1,0,1371.75,-1012.25)" fill="rgb(229,0,20)"></rect><path d=" M 1259.492 211.5 L 1195.5 211.5 L 1195.5 218.5 L 1260 218.5 L 1260 212.008 L 1259.492 211.5 Z " fill-rule="evenodd" fill="rgb(229,0,20)"></path><path d=" M 1066.999 277 L 1131 277 L 1131 270 L 1066.5 270 L 1066.5 276.501 L 1066.999 277 Z " fill-rule="evenodd" fill="rgb(229,0,20)"></path></svg><style>@media (prefers-color-scheme: light) { :root { filter: none; } }
</style></svg>