<?xml version="1.0" standalone="no"?>
<!DOCTYPE svg PUBLIC "-//W3C//DTD SVG 20010904//EN"
 "http://www.w3.org/TR/2001/REC-SVG-20010904/DTD/svg10.dtd">
<svg version="1.0" xmlns="http://www.w3.org/2000/svg"
 width="700.000000pt" height="700.000000pt" viewBox="0 0 700.000000 700.000000"
 preserveAspectRatio="xMidYMid meet">
<metadata>
Created by potrace 1.14, written by Peter Selinger 2001-2017
</metadata>
<g transform="translate(0.000000,700.000000) scale(0.100000,-0.100000)"
fill="#000000" stroke="none">
<path d="M0 4667 l0 -2332 1141 -1140 c628 -627 1153 -1152 1167 -1167 l25
-28 2334 0 2333 0 0 2333 0 2332 -1167 1168 -1168 1167 -2332 0 -2333 0 0
-2333z m4650 -1168 l0 -1166 -1157 1 -1158 1 -1 1160 c-1 652 3 1163 8 1166 5
3 526 5 1158 5 l1150 0 0 -1167z"/>
</g>
</svg>
